<?xml version="1.0" ?><svg id="Layer_1" style="enable-background:new 0 0 24 24;" version="1.1" viewBox="0 0 24 24" xml:space="preserve" xmlns="http://www.w3.org/2000/svg" xmlns:xlink="http://www.w3.org/1999/xlink"><style type="text/css">
	.st0{fill:none;stroke:#008000;stroke-width:3.2;stroke-linecap:round;stroke-linejoin:round;stroke-miterlimit:10;}
	.st1{fill:none;stroke:#008000;stroke-width:2.8;stroke-linecap:round;stroke-linejoin:round;stroke-miterlimit:10;}
	.st2{fill:none;stroke:#008000;stroke-width:2.8;stroke-linejoin:round;stroke-miterlimit:10;}
</style><g><g><g><g><defs><path d="M23.3,12c0,1.1-1.5,2-1.8,3.1c-0.3,1.1,0.3,2.7-0.3,3.5c-0.7,0.9-2.4,0.8-3.3,1.4       c-0.9,0.6-1.3,2.3-2.4,2.7c-1,0.3-2.3-0.8-3.5-0.8c-1.1,0-2.4,1.1-3.5,0.8c-1.1-0.3-1.5-2-2.4-2.7c-0.9-0.7-2.6-0.5-3.3-1.4       c-0.6-0.9,0-2.5-0.3-3.5c-0.3-1-1.8-1.9-1.8-3.1c0-1.1,1.5-2,1.8-3.1c0.3-1.1-0.3-2.7,0.3-3.5C3.6,4.5,5.3,4.6,6.2,4       c0.9-0.6,1.3-2.3,2.4-2.7c1-0.3,2.3,0.8,3.5,0.8c1.1,0,2.4-1.1,3.5-0.8c1.1,0.3,1.5,2,2.4,2.7c0.9,0.7,2.6,0.5,3.3,1.4       c0.6,0.9,0,2.5,0.3,3.5C21.8,10,23.3,10.9,23.3,12z" id="SVGID_1_"/></defs><clipPath id="SVGID_2_"><use style="overflow:visible;" xlink:href="#SVGID_1_"/></clipPath><use style="overflow:visible;fill:none;stroke:#000000;stroke-width:1.5;stroke-linecap:round;stroke-linejoin:round;stroke-miterlimit:10;" xlink:href="#SVGID_1_"/></g></g></g><g><polyline class="st1" points="7.9,12.1 10.6,14.7 16.1,9.3   "/></g></g></svg>